<?xml version="1.0" encoding="UTF-8" standalone="no"?>
<!DOCTYPE svg PUBLIC "-//W3C//DTD SVG 1.1//EN" "http://www.w3.org/Graphics/SVG/1.1/DTD/svg11.dtd">
<svg version="1.1" xmlns="http://www.w3.org/2000/svg" xmlns:xlink="http://www.w3.org/1999/xlink" preserveAspectRatio="xMidYMid meet" viewBox="0 0 150 150" width="150" height="150"><defs><path d="M77.83 106.6C78.33 105.8 79.13 105.8 80.53 106.6C84.03 108.4 95.53 108.8 101.43 107.2C104.43 106.3 107.33 105.9 107.73 106.2C108.53 106.7 93.73 122.5 92.43 122.5C92.13 122.5 88.53 119.2 84.53 115.1C80.33 110.9 77.53 107.2 77.83 106.6Z" id="a1Jdi8JsY5"></path><path d="M72.93 59.5C73.43 59.01 75.93 56.54 80.43 52.1C84.93 56.54 87.43 59.01 87.93 59.5C92.03 63.6 95.03 67.3 94.63 67.7C94.23 68.1 92.13 67.8 89.93 67C84.83 65.2 76.03 65.2 70.93 67C66.13 68.7 66.63 68.7 66.03 67.7C65.73 67.2 68.93 63.5 72.93 59.5Z" id="d1YwGTXh6L"></path><path d="M78.73 108.3C78.03 108.2 76.53 107.2 75.43 106C75.3 105.85 74.63 105.12 73.43 103.8C87.29 89.94 94.99 82.24 96.53 80.7C109.33 67.9 120.03 57.5 120.53 57.5C120.93 57.5 122.53 60.1 124.03 63.2C127.23 70 127.73 79.7 125.13 85.7C123.23 90.3 116.83 98.8 111.83 103.7C105.73 109.5 93.13 112 83.43 109.3C81.53 108.8 79.33 108.4 78.73 108.3Z" id="bG6UsmaL"></path><path d="M58.43 76C58.43 75.2 60.03 72.8 61.93 70.7C67.43 64.5 79.13 61.8 88.43 64.5C91.83 65.5 91.73 65.4 85.63 59.2C85.22 58.79 83.15 56.72 79.43 53L88.93 43.5L98.53 34L110.13 45.8L121.73 57.6C115.79 63.6 112.49 66.93 111.83 67.6C106.43 73 101.63 77.5 101.23 77.5C100.83 77.5 99.73 75.8 98.93 73.8C98.82 73.55 98.29 72.32 97.33 70.1C90.61 76.82 86.88 80.55 86.13 81.3C79.93 87.5 74.43 92.5 73.83 92.5C73.23 92.5 69.43 89.1 65.53 85C61.63 80.9 58.43 76.8 58.43 76Z" id="caS5t9sr3"></path><path d="M27.03 93.4C33.87 86.56 37.67 82.76 38.43 82C49.23 71.2 52.23 69.2 51.03 73.8C50.03 77.8 53.53 82.3 73.33 102C74.67 103.33 81.37 110 93.43 122C87.91 127.52 84.84 130.59 84.23 131.2C79.13 136.3 74.73 140.5 74.43 140.5C74.13 140.5 63.33 129.9 50.43 117C47.31 113.85 39.51 105.99 27.03 93.4Z" id="cHyVb1BeU"></path><path d="M25.23 62.5C26.63 59.5 35.03 50.4 50.93 34.5C52.5 32.93 60.33 25.1 74.43 11L83.63 20.2L92.93 29.5C80.33 42.16 73.33 49.19 71.93 50.6C60.33 62.2 45.93 76.6 39.83 82.6C39.09 83.33 35.39 87 28.73 93.6L26.73 91.1C23 77.63 22.5 68.1 25.23 62.5Z" id="i1LDudeJAr"></path><path d="M80.43 107.5C85.13 110 97.83 109.8 105.93 106.9C107.03 106.5 104.53 109.7 100.43 113.9C96.33 118.1 92.73 121.5 92.43 121.5C92.13 121.5 88.83 118.5 85.13 114.7C78.33 107.9 76.83 105.6 80.43 107.5Z" id="b5SEYdKWs"></path><path d="M121.03 91.5C121.33 91.5 121.23 92 120.93 92.5C120.63 93.1 120.13 93.5 119.83 93.5C119.53 93.5 119.63 93.1 119.93 92.5C120.23 92 120.73 91.5 121.03 91.5Z" id="cYviRIM8O"></path><path d="M80.43 53C84.63 57.2 86.96 59.53 87.43 60C91.23 63.8 94.23 67 94.13 67.1C93.93 67.3 92.03 66.8 89.93 66C84.83 64.2 76.03 64.2 70.93 66C68.73 66.8 66.73 67.5 66.43 67.5C66.13 67.5 69.23 64.2 73.13 60.3C74.1 59.33 76.54 56.89 80.43 53Z" id="aQoyW0CuY"></path><path d="M78.73 107.3C78.03 107.2 76.73 106.4 75.93 105.5C74.53 104 76.43 101.8 97.13 81.2C109.53 68.7 120.03 58.5 120.33 58.5C120.63 58.5 122.03 60.9 123.33 63.8C126.13 70 126.53 80 124.13 85.7C122.23 90.1 115.93 98.8 111.33 103.2C105.73 108.5 92.73 110.9 83.43 108.3C81.53 107.8 79.33 107.4 78.73 107.3Z" id="e7fFeFD7kv"></path><path d="M59.43 76C59.43 75.2 60.73 73.1 62.43 71.2C67.63 65.2 80.83 62.7 89.93 66C92.13 66.8 94.13 67.5 94.43 67.5C94.63 67.5 91.63 64.2 87.63 60.2C87.15 59.72 84.75 57.32 80.43 53L89.43 44L98.53 35L109.63 46.3L120.73 57.6C115.09 63.3 111.96 66.47 111.33 67.1C106.23 72.3 101.63 76.5 101.23 76.5C100.73 76.5 100.43 75.9 100.43 75.1C100.43 74.3 99.63 72.8 98.73 71.6C96.93 69.4 96.93 69.5 85.93 80.5C79.93 86.5 74.43 91.5 73.83 91.5C73.23 91.5 69.73 88.3 66.03 84.5C62.43 80.6 59.43 76.8 59.43 76Z" id="c1w92rld7d"></path><path d="M28.03 93.4C34.57 86.86 38.2 83.23 38.93 82.5C44.93 76.4 50.03 71.5 50.23 71.5C50.53 71.5 50.43 72.5 50.13 73.7C49.03 77.8 52.43 82.2 72.33 102C73.67 103.33 80.37 110 92.43 122C87.21 127.22 84.31 130.12 83.73 130.7C78.93 135.6 74.73 139.5 74.43 139.5C74.13 139.5 63.53 129.1 50.93 116.5C47.88 113.42 40.24 105.72 28.03 93.4Z" id="g9HCcwPaT"></path><path d="M26.23 62.5C27.63 59.5 35.93 50.4 51.43 35C52.96 33.47 60.63 25.8 74.43 12L83.13 20.7L91.93 29.5C79.63 41.92 72.8 48.82 71.43 50.2C60.13 61.7 45.93 75.9 39.73 81.9C38.99 82.62 35.29 86.22 28.63 92.7L27.13 90.4C23.86 77.13 23.56 67.83 26.23 62.5Z" id="cd1iPQjKl"></path></defs><g><g><g><use xlink:href="#a1Jdi8JsY5" opacity="1" fill="#e53e43" fill-opacity="1"></use><g><use xlink:href="#a1Jdi8JsY5" opacity="1" fill-opacity="0" stroke="#000000" stroke-width="1" stroke-opacity="0"></use></g></g><g><use xlink:href="#d1YwGTXh6L" opacity="1" fill="#8c2832" fill-opacity="1"></use><g><use xlink:href="#d1YwGTXh6L" opacity="1" fill-opacity="0" stroke="#000000" stroke-width="1" stroke-opacity="0"></use></g></g><g><use xlink:href="#bG6UsmaL" opacity="1" fill="#f83f40" fill-opacity="1"></use><g><use xlink:href="#bG6UsmaL" opacity="1" fill-opacity="0" stroke="#000000" stroke-width="1" stroke-opacity="0"></use></g></g><g><use xlink:href="#caS5t9sr3" opacity="1" fill="#ac2c39" fill-opacity="1"></use><g><use xlink:href="#caS5t9sr3" opacity="1" fill-opacity="0" stroke="#000000" stroke-width="1" stroke-opacity="0"></use></g></g><g><use xlink:href="#cHyVb1BeU" opacity="1" fill="#fb7f31" fill-opacity="1"></use><g><use xlink:href="#cHyVb1BeU" opacity="1" fill-opacity="0" stroke="#000000" stroke-width="1" stroke-opacity="0"></use></g></g><g><use xlink:href="#i1LDudeJAr" opacity="1" fill="#fec524" fill-opacity="1"></use><g><use xlink:href="#i1LDudeJAr" opacity="1" fill-opacity="0" stroke="#000000" stroke-width="1" stroke-opacity="0"></use></g></g><g><use xlink:href="#b5SEYdKWs" opacity="1" fill="#e53e43" fill-opacity="1"></use><g><use xlink:href="#b5SEYdKWs" opacity="1" fill-opacity="0" stroke="#000000" stroke-width="1" stroke-opacity="0"></use></g></g><g><use xlink:href="#cYviRIM8O" opacity="1" fill="#e53e43" fill-opacity="1"></use><g><use xlink:href="#cYviRIM8O" opacity="1" fill-opacity="0" stroke="#000000" stroke-width="1" stroke-opacity="0"></use></g></g><g><use xlink:href="#aQoyW0CuY" opacity="1" fill="#8c2832" fill-opacity="1"></use><g><use xlink:href="#aQoyW0CuY" opacity="1" fill-opacity="0" stroke="#000000" stroke-width="1" stroke-opacity="0"></use></g></g><g><use xlink:href="#e7fFeFD7kv" opacity="1" fill="#f83f40" fill-opacity="1"></use><g><use xlink:href="#e7fFeFD7kv" opacity="1" fill-opacity="0" stroke="#000000" stroke-width="1" stroke-opacity="0"></use></g></g><g><use xlink:href="#c1w92rld7d" opacity="1" fill="#ac2c39" fill-opacity="1"></use><g><use xlink:href="#c1w92rld7d" opacity="1" fill-opacity="0" stroke="#000000" stroke-width="1" stroke-opacity="0"></use></g></g><g><use xlink:href="#g9HCcwPaT" opacity="1" fill="#fb7f31" fill-opacity="1"></use><g><use xlink:href="#g9HCcwPaT" opacity="1" fill-opacity="0" stroke="#000000" stroke-width="1" stroke-opacity="0"></use></g></g><g><use xlink:href="#cd1iPQjKl" opacity="1" fill="#fec524" fill-opacity="1"></use><g><use xlink:href="#cd1iPQjKl" opacity="1" fill-opacity="0" stroke="#000000" stroke-width="1" stroke-opacity="0"></use></g></g></g></g></svg>